<mxfile host="app.diagrams.net" modified="2021-10-21T14:57:43.627Z" agent="5.0 (Windows NT 10.0; Win64; x64) AppleWebKit/537.36 (KHTML, like Gecko) Chrome/94.0.4606.81 Safari/537.36" etag="8zHFVI4CWRpqqriIY8lk" version="15.2.9" type="github">
  <diagram id="btUnBtZeVsEarqpgnvc3" name="第 1 页">
    <mxGraphModel dx="1422" dy="-1584" grid="1" gridSize="10" guides="1" tooltips="1" connect="1" arrows="1" fold="1" page="1" pageScale="1" pageWidth="827" pageHeight="1169" math="0" shadow="0">
      <root>
        <mxCell id="0" />
        <mxCell id="1" parent="0" />
        <mxCell id="itC19YVeuLYzHGUm70fu-8" style="rounded=0;orthogonalLoop=1;jettySize=auto;html=1;exitX=1;exitY=0.3333333333333333;exitDx=0;exitDy=0;exitPerimeter=0;entryX=0;entryY=0.5;entryDx=0;entryDy=0;" edge="1" parent="1" source="itC19YVeuLYzHGUm70fu-11" target="itC19YVeuLYzHGUm70fu-12">
          <mxGeometry relative="1" as="geometry" />
        </mxCell>
        <mxCell id="itC19YVeuLYzHGUm70fu-9" style="rounded=0;orthogonalLoop=1;jettySize=auto;html=1;exitX=1;exitY=0.3333333333333333;exitDx=0;exitDy=0;exitPerimeter=0;entryX=0;entryY=0.5;entryDx=0;entryDy=0;" edge="1" parent="1" source="itC19YVeuLYzHGUm70fu-11" target="itC19YVeuLYzHGUm70fu-13">
          <mxGeometry relative="1" as="geometry" />
        </mxCell>
        <mxCell id="itC19YVeuLYzHGUm70fu-10" style="rounded=0;orthogonalLoop=1;jettySize=auto;html=1;exitX=1;exitY=0.3333333333333333;exitDx=0;exitDy=0;exitPerimeter=0;entryX=0;entryY=0.5;entryDx=0;entryDy=0;" edge="1" parent="1" source="itC19YVeuLYzHGUm70fu-11" target="itC19YVeuLYzHGUm70fu-14">
          <mxGeometry relative="1" as="geometry" />
        </mxCell>
        <mxCell id="itC19YVeuLYzHGUm70fu-11" value="用户" style="shape=umlActor;verticalLabelPosition=bottom;verticalAlign=top;html=1;outlineConnect=0;" vertex="1" parent="1">
          <mxGeometry x="110" y="2933" width="30" height="60" as="geometry" />
        </mxCell>
        <mxCell id="itC19YVeuLYzHGUm70fu-12" value="注册" style="ellipse;whiteSpace=wrap;html=1;" vertex="1" parent="1">
          <mxGeometry x="250" y="2870" width="180" height="50" as="geometry" />
        </mxCell>
        <mxCell id="itC19YVeuLYzHGUm70fu-13" value="登陆" style="ellipse;whiteSpace=wrap;html=1;" vertex="1" parent="1">
          <mxGeometry x="250" y="2930" width="180" height="50" as="geometry" />
        </mxCell>
        <mxCell id="itC19YVeuLYzHGUm70fu-14" value="通信" style="ellipse;whiteSpace=wrap;html=1;" vertex="1" parent="1">
          <mxGeometry x="250" y="2990" width="180" height="50" as="geometry" />
        </mxCell>
      </root>
    </mxGraphModel>
  </diagram>
</mxfile>
